<svg width="14" height="25" viewBox="0 0 14 25" fill="none" xmlns="http://www.w3.org/2000/svg">
<path d="M1.93286 0.835938C2.19805 0.83604 2.45235 0.941414 2.63989 1.12891L13.2649 11.7539C13.3577 11.8466 13.4314 11.9569 13.4817 12.0781C13.532 12.1995 13.5579 12.3305 13.5579 12.4619C13.5578 12.5932 13.532 12.7234 13.4817 12.8447C13.4314 12.966 13.3578 13.0762 13.2649 13.1689L2.63989 23.7939C2.54706 23.8868 2.43695 23.9605 2.31567 24.0107C2.1944 24.061 2.06413 24.0869 1.93286 24.0869C1.80158 24.0869 1.67135 24.0609 1.55005 24.0107C1.42865 23.9605 1.31777 23.8869 1.22485 23.7939C1.13205 23.7011 1.05832 23.591 1.00806 23.4697C0.957821 23.3484 0.931935 23.2182 0.931885 23.0869C0.931885 22.9557 0.957883 22.8254 1.00806 22.7041C1.05834 22.5827 1.13194 22.4718 1.22485 22.3789L11.0999 12.5059L11.1438 12.4619L11.0999 12.417L1.22485 2.54395C1.03736 2.3564 0.931987 2.1021 0.931885 1.83691C0.931885 1.57154 1.03721 1.31655 1.22485 1.12891C1.4125 0.941259 1.66749 0.835938 1.93286 0.835938Z" fill="#8A8D93" stroke="#8A8D93" stroke-width="0.125"/>
</svg>
